<mxfile host="app.diagrams.net" modified="2023-10-30T10:48:36.636Z" agent="Mozilla/5.0 (Windows NT 10.0; Win64; x64; rv:109.0) Gecko/20100101 Firefox/119.0" etag="rfaB0AjWsBWE9Wpp4uoF" version="22.0.8" type="device">
  <diagram name="PÃ¡gina-1" id="q6WgFDapJnNAmP50Bf2N">
    <mxGraphModel dx="954" dy="602" grid="1" gridSize="10" guides="1" tooltips="1" connect="1" arrows="1" fold="1" page="1" pageScale="1" pageWidth="827" pageHeight="1169" math="0" shadow="0">
      <root>
        <mxCell id="0" />
        <mxCell id="1" parent="0" />
        <mxCell id="-3U_T_TWqleo-DSMIVql-1" value="asdf" style="rounded=0;whiteSpace=wrap;html=1;" parent="1" vertex="1">
          <mxGeometry x="160" y="80" width="120" height="60" as="geometry" />
        </mxCell>
        <mxCell id="-3U_T_TWqleo-DSMIVql-2" value="asdf" style="ellipse;whiteSpace=wrap;html=1;" parent="1" vertex="1">
          <mxGeometry x="370" y="40" width="120" height="80" as="geometry" />
        </mxCell>
        <mxCell id="-3U_T_TWqleo-DSMIVql-3" value="asdf" style="whiteSpace=wrap;html=1;aspect=fixed;" parent="1" vertex="1">
          <mxGeometry x="500" y="140" width="80" height="80" as="geometry" />
        </mxCell>
        <mxCell id="pBW_dpcAiU8Y4Z3jfjnP-1" value="asdf" style="triangle;whiteSpace=wrap;html=1;" vertex="1" parent="1">
          <mxGeometry x="380" y="240" width="60" height="80" as="geometry" />
        </mxCell>
      </root>
    </mxGraphModel>
  </diagram>
</mxfile>
